<svg width="24" height="24" viewBox="0 0 24 24" fill="none" xmlns="http://www.w3.org/2000/svg">
<path d="M3.23611 21.5819C3.30694 21.6292 3.40139 21.6528 3.47222 21.6528C3.56667 21.6528 3.6375 21.6292 3.70833 21.5819L11.5 17.0014L16.175 19.7639C16.4111 19.9056 16.6944 19.8111 16.8125 19.5986C16.9542 19.3625 16.8597 19.0792 16.6472 18.9611L11.7361 16.0569C11.5944 15.9625 11.4056 15.9625 11.2639 16.0569L3.94444 20.3542V3.94444H5.36111C5.40833 3.94444 5.43194 3.94444 5.47917 3.92083C5.52639 3.92083 5.55 3.94444 5.59722 3.94444H19.0556V5.125H5.36111C5.10139 5.125 4.88889 5.3375 4.88889 5.59722C4.88889 5.85694 5.10139 6.06944 5.36111 6.06944H19.0556V20.3542L18.5125 20.0472C18.2764 19.9056 17.9931 20 17.875 20.2125C17.7333 20.4486 17.8278 20.7319 18.0403 20.85L19.2917 21.5819C19.3625 21.6292 19.4569 21.6528 19.5278 21.6528C19.5986 21.6528 19.6931 21.6292 19.7639 21.5819C19.9056 21.4875 20 21.3458 20 21.1806V3.47222C20 3.2125 19.7875 3 19.5278 3H5.59722C5.55 3 5.52639 3 5.47917 3.02361C5.43194 3 5.40833 3 5.36111 3H3.47222C3.2125 3 3 3.2125 3 3.47222V21.1806C3 21.3458 3.09444 21.5111 3.23611 21.5819Z" fill="#1DA1F2"/>
</svg>
