<svg xmlns="http://www.w3.org/2000/svg" xmlns:xlink="http://www.w3.org/1999/xlink" version="1.1" x="0px" y="0px" viewBox="0 0 1024 1280" style="enable-background:new 0 0 1024 1024;" xml:space="preserve"><g><g><g><path d="M849.6,907.3c-10.8-7-21.6-13.9-32.4-20.9c-25.9-16.7-51.8-33.5-77.7-50.2c-31.2-20.2-62.4-40.3-93.6-60.5     c-27.1-17.5-54.2-35-81.3-52.5c-13.1-8.5-26.1-17.5-39.5-25.5c-0.2-0.1-0.4-0.2-0.6-0.4c-7.2-4.6-18.1-4.6-25.2,0     c-10.8,7-21.6,13.9-32.4,20.9c-25.9,16.7-51.8,33.5-77.7,50.2c-31.2,20.2-62.4,40.3-93.6,60.5c-27.1,17.5-54.2,35-81.3,52.5     c-13.1,8.5-26.7,16.6-39.5,25.5c-0.2,0.1-0.4,0.2-0.6,0.4c12.5,7.2,25.1,14.4,37.6,21.6c0-13.3,0-26.6,0-39.9     c0-34.5,0-69.1,0-103.6c0-47.8,0-95.7,0-143.5c0-53.2,0-106.4,0-159.6c0-50.6,0-101.1,0-151.7c0-40,0-80,0-120     c0-21.4,0-42.9,0-64.3c0-1.5,0-3.1,0-4.6c0-0.1,0-0.2,0-0.3c0,0,0,0,0,0c0-1.2,0-2.3,0.1-3.5c0.4-6-1.3,5.2,0,0.6     c0.5-1.9,1.1-3.9,1.6-5.8c0.8-2.7,2.4-2.3-0.8,1.7c0.5-0.6,0.8-1.7,1.2-2.3c1-1.9,2.6-3.6,3.5-5.5c-2.5,5.1-2.8,3.3-1,1.5     c1.1-1.1,2.1-2.2,3.2-3.2c0.6-0.5,1.5-1.1,2-1.7c-3.5,4.3-3.3,2.4-0.9,0.8c1.6-1.1,3.5-1.8,5.1-2.9c2.6-1.8-6.2,2.1-1.7,0.7     c0.8-0.3,1.7-0.6,2.5-0.8c1.3-0.4,2.6-0.6,3.9-1c4.4-1.2-6.2,0.4-1.3,0.1c1.6-0.1,3.2-0.2,4.8-0.2c2.2,0,4.5,0,6.7,0     c28.8,0,57.6,0,86.5,0c48.6,0,97.2,0,145.8,0c52.4,0,104.9,0,157.3,0c40.4,0,80.8,0,121.2,0c10.7,0,21.5,0,32.2,0     c2.1,0,4.1,0,6.2,0c0.1,0,0.3,0,0.4,0c0.2,0,0.5,0,0.7,0c1.2,0,2.3,0.1,3.5,0.2c4.9,0.2-5.9-1.4-1.3-0.1c2.2,0.6,4.3,1.2,6.4,1.8     c3.7,1.2-2-0.8-2.3-1c0.8,0.8,2.5,1.2,3.5,1.8c0.8,0.4,1.5,0.9,2.2,1.4c2.5,1.6,2.6,3.5-0.9-0.8c1.3,1.6,3.3,2.9,4.7,4.5     c1.9,2,2,4.2-0.6-1c0.3,0.7,1.1,1.5,1.5,2.1c1.1,1.8,1.9,4.1,3.2,5.7c-2.9-3.7-1.7-4.6-1-2.3c0.4,1.3,0.9,2.5,1.2,3.8     c0.2,0.9,0.4,1.7,0.6,2.6c1.2,4.7-0.3-5.9-0.1-1.3c0.1,1.6,0.2,3.1,0.2,4.7c0,1.7,0,3.3,0,5c0,8.1,0,16.1,0,24.2c0,32,0,64,0,96     c0,46.4,0,92.9,0,139.3c0,52.9,0,105.8,0,158.7c0,51.4,0,102.9,0,154.3c0,42,0,84,0,125.9c0,24.6,0,49.2,0,73.7     c0,3.3,0,6.6,0,9.8c0,13.1,11.5,25.6,25,25c13.5-0.6,25-11,25-25c0-13.5,0-27,0-40.6c0-35.1,0-70.2,0-105.3c0-48.3,0-96.7,0-145     c0-53.5,0-107.1,0-160.6c0-50.6,0-101.3,0-151.9c0-39.6,0-79.3,0-118.9c0-20.5,0-41.1,0-61.6c0-21.8-7.6-43.3-24.8-57.6     c-13.5-11.2-29.5-17.3-47.1-17.5c-2.2,0-4.3,0-6.5,0c-28.7,0-57.5,0-86.2,0c-48.8,0-97.7,0-146.5,0c-52.7,0-105.5,0-158.2,0     c-40.4,0-80.9,0-121.3,0c-10.5,0-21.1,0-31.6,0c-2,0-3.9,0-5.9,0c-18.7,0.2-36.3,7.2-49.9,20c-15.4,14.6-21.9,34.8-21.9,55.5     c0,7.6,0,15.2,0,22.8c0,31.4,0,62.9,0,94.3c0,46.4,0,92.7,0,139.1c0,53.2,0,106.3,0,159.5c0,51.9,0,103.7,0,155.6     c0,42.6,0,85.1,0,127.7c0,24.9,0,49.8,0,74.7c0,3.3,0,6.6,0,9.8c0,18.3,21.5,32,37.6,21.6c10.8-7,21.6-13.9,32.4-20.9     c25.9-16.7,51.8-33.5,77.7-50.2c31.2-20.2,62.4-40.3,93.6-60.5c27.1-17.5,54.2-35,81.3-52.5c13.1-8.5,26.7-16.5,39.5-25.5     c0.2-0.1,0.4-0.2,0.6-0.4c-8.4,0-16.8,0-25.2,0c10.8,7,21.6,13.9,32.4,20.9c25.9,16.7,51.8,33.5,77.7,50.2     c31.2,20.2,62.4,40.3,93.6,60.5c27.1,17.5,54.2,35,81.3,52.5c13.1,8.5,26.1,17.5,39.5,25.5c0.2,0.1,0.4,0.2,0.6,0.4     c11,7.1,28.1,2.6,34.2-9C865.2,929.1,861.4,914.9,849.6,907.3z"/></g></g></g><text x="0" y="1039" fill="#000000" font-size="5px" font-weight="bold" font-family="'Helvetica Neue', Helvetica, Arial-Unicode, Arial, Sans-serif">Created by shashank singh</text><text x="0" y="1044" fill="#000000" font-size="5px" font-weight="bold" font-family="'Helvetica Neue', Helvetica, Arial-Unicode, Arial, Sans-serif">from the Noun Project</text></svg>