<svg width="24" height="24" viewBox="0 0 24 24" fill="none" xmlns="http://www.w3.org/2000/svg">
<path d="M8.40601 6.30367C8.40601 6.80423 8.00556 7.20467 7.50501 7.20467C7.00445 7.20467 6.604 6.80423 6.604 6.30367V3.901C6.604 3.40044 7.00445 3 7.50501 3C8.00556 3 8.40601 3.40044 8.40601 3.901V6.30367ZM17.2158 3.901C17.2158 3.40044 16.8153 3 16.3148 3C15.8142 3 15.4138 3.40044 15.4138 3.901V6.30367C15.4138 6.80423 15.8142 7.20467 16.3148 7.20467C16.8153 7.20467 17.2158 6.80423 17.2158 6.30367V3.901ZM21.02 6.18354V20.0189C21.02 20.5595 20.5795 21 20.0189 21H4.00111C3.44049 21 3 20.5595 3 20.0189V6.18354C3 5.64294 3.44049 5.20245 4.00111 5.20245H6.00334V6.30367C6.00334 7.16463 6.64405 7.84538 7.50501 7.84538C8.36596 7.84538 9.00667 7.1446 9.00667 6.30367V5.20245H14.8131V6.30367C14.8131 7.16463 15.4538 7.84538 16.3148 7.84538C17.1758 7.84538 17.8165 7.1446 17.8165 6.30367V5.20245H19.9989C20.5395 5.20245 21.02 5.64294 21.02 6.18354ZM19.4182 9.78754C19.4182 9.58732 19.238 9.40712 19.0178 9.40712H5.00222C4.78198 9.40712 4.60178 9.5673 4.60178 9.78754V19.0378C4.60178 19.238 4.78198 19.4182 5.00222 19.4182H19.0178C19.238 19.4182 19.4182 19.2581 19.4182 19.0378V9.78754Z" fill="#1DA1F2"/>
</svg>
