<svg width="24" height="24" viewBox="0 0 24 24" fill="none" xmlns="http://www.w3.org/2000/svg">
<path d="M8.00223 9.23535H10.75C10.9582 9.23535 11.1579 9.15264 11.3051 9.00541C11.4523 8.85818 11.535 8.6585 11.535 8.45029C11.535 8.24208 11.4523 8.04239 11.3051 7.89516C11.1579 7.74793 10.9582 7.66522 10.75 7.66522H8.00223C7.79402 7.66522 7.59433 7.74793 7.4471 7.89516C7.29988 8.04239 7.21716 8.24208 7.21716 8.45029C7.21716 8.6585 7.29988 8.85818 7.4471 9.00541C7.59433 9.15264 7.79402 9.23535 8.00223 9.23535V9.23535Z" fill="#1DA1F2"/>
<path d="M15.0155 10.9023H8.00223C7.79402 10.9023 7.59433 10.9851 7.4471 11.1323C7.29988 11.2795 7.21716 11.4792 7.21716 11.6874C7.21716 11.8956 7.29988 12.0953 7.4471 12.2425C7.59433 12.3898 7.79402 12.4725 8.00223 12.4725H15.0155C15.2237 12.4725 15.4234 12.3898 15.5706 12.2425C15.7178 12.0953 15.8005 11.8956 15.8005 11.6874C15.8005 11.4792 15.7178 11.2795 15.5706 11.1323C15.4234 10.9851 15.2237 10.9023 15.0155 10.9023V10.9023Z" fill="#1DA1F2"/>
<path d="M15.0155 14.1394H8.00223C7.79402 14.1394 7.59433 14.2221 7.4471 14.3693C7.29988 14.5166 7.21716 14.7163 7.21716 14.9245C7.21716 15.1327 7.29988 15.3324 7.4471 15.4796C7.59433 15.6268 7.79402 15.7095 8.00223 15.7095H15.0155C15.2237 15.7095 15.4234 15.6268 15.5706 15.4796C15.7178 15.3324 15.8005 15.1327 15.8005 14.9245C15.8005 14.7163 15.7178 14.5166 15.5706 14.3693C15.4234 14.2221 15.2237 14.1394 15.0155 14.1394Z" fill="#1DA1F2"/>
<path d="M11.5089 1.00004C9.54442 0.994747 7.61803 1.54167 5.94944 2.57841C4.28084 3.61516 2.93721 5.09999 2.0718 6.86354C1.20639 8.6271 0.854051 10.5984 1.05496 12.5525C1.25588 14.5067 2.00195 16.365 3.2081 17.9156L1.77404 21.2835C1.71867 21.4136 1.69942 21.5561 1.71835 21.6962C1.73728 21.8363 1.79367 21.9687 1.88157 22.0793C1.96948 22.19 2.08564 22.2749 2.21779 22.3251C2.34994 22.3752 2.49317 22.3888 2.63238 22.3643L8.06765 21.4144C9.5092 21.9138 11.0423 22.0929 12.5601 21.9394C14.078 21.7858 15.5441 21.3032 16.8565 20.5252C18.1688 19.7472 19.2957 18.6925 20.1588 17.4345C21.0219 16.1765 21.6004 14.7455 21.854 13.2411C22.1076 11.7367 22.0302 10.1951 21.6272 8.72371C21.2242 7.2523 20.5053 5.88641 19.5205 4.72119C18.5358 3.55597 17.3089 2.61942 15.9252 1.97676C14.5416 1.3341 13.0345 1.00079 11.5089 1.00004V1.00004ZM11.5089 20.4278C10.451 20.4268 9.40176 20.2372 8.41047 19.8678C8.28003 19.8196 8.13915 19.807 8.00223 19.8311L3.78381 20.5691L4.83057 18.0962C4.88757 17.9618 4.90602 17.8143 4.88383 17.6701C4.86164 17.5258 4.7997 17.3907 4.70496 17.2797C3.38711 15.7311 2.63767 13.7789 2.58072 11.7463C2.52378 9.71364 3.16275 7.72253 4.39183 6.1026C5.62091 4.48267 7.36639 3.3311 9.33925 2.83854C11.3121 2.34599 13.394 2.542 15.2403 3.39412C17.0866 4.24624 18.5864 5.70337 19.4916 7.52423C20.3967 9.34509 20.6528 11.4205 20.2175 13.4068C19.7822 15.393 18.6815 17.1711 17.0978 18.4465C15.5141 19.7219 13.5423 20.4181 11.5089 20.4199V20.4278Z" fill="#1DA1F2"/>
</svg>
