<svg width="24" height="24" viewBox="0 0 24 24" fill="none" xmlns="http://www.w3.org/2000/svg">
<path d="M15.8609 13.0602C15.4809 12.8802 15.0009 13.0402 14.8209 13.4202C14.3809 14.3002 13.5009 14.8602 12.5009 14.8602C11.5009 14.8602 10.6209 14.3002 10.1809 13.4202C10.0009 13.0402 9.5209 12.8802 9.1409 13.0602C8.7609 13.2402 8.6009 13.7202 8.7809 14.1002C9.4609 15.5002 10.9209 16.4202 12.5009 16.4202C14.0809 16.4202 15.5209 15.5002 16.2209 14.1002C16.4009 13.7202 16.2409 13.2402 15.8609 13.0602Z" fill="#1DA1F2"/>
<path d="M12.5 2C7.26 2 3 6.26 3 11.5C3 16.74 7.26 21 12.5 21C17.74 21 22 16.74 22 11.5C22 6.26 17.74 2 12.5 2ZM12.5 19.44C8.12 19.44 4.56 15.88 4.56 11.5C4.56 7.12 8.12 3.56 12.5 3.56C16.88 3.56 20.44 7.12 20.44 11.5C20.44 15.88 16.88 19.44 12.5 19.44Z" fill="#1DA1F2"/>
<path d="M9.46055 11.0395C10.2337 11.0395 10.8605 10.2516 10.8605 9.27953C10.8605 8.30751 10.2337 7.51953 9.46055 7.51953C8.68735 7.51953 8.06055 8.30751 8.06055 9.27953C8.06055 10.2516 8.68735 11.0395 9.46055 11.0395Z" fill="#1DA1F2"/>
<path d="M15.5387 11.0395C16.3119 11.0395 16.9387 10.2516 16.9387 9.27953C16.9387 8.30751 16.3119 7.51953 15.5387 7.51953C14.7655 7.51953 14.1387 8.30751 14.1387 9.27953C14.1387 10.2516 14.7655 11.0395 15.5387 11.0395Z" fill="#1DA1F2"/>
</svg>
