<svg width="24" height="24" viewBox="0 0 24 24" fill="none" xmlns="http://www.w3.org/2000/svg">
<path d="M8.66927 12.9964C8.79407 13.2567 8.98159 13.4572 9.23119 13.5966C9.48079 13.736 9.77327 13.8067 10.108 13.8067C10.3723 13.8067 10.6328 13.7571 10.8907 13.6578C11.1486 13.5585 11.3445 13.4432 11.4801 13.3127V12.0422H10.0843V12.5801H10.8254V12.9843C10.7281 13.06 10.611 13.1243 10.4741 13.1772C10.3377 13.23 10.2021 13.2567 10.0664 13.2567C9.79247 13.2567 9.57039 13.1625 9.40143 12.9728C9.23247 12.7838 9.14799 12.4999 9.14799 12.1211C9.14799 11.7698 9.23183 11.505 9.39823 11.3274C9.56591 11.1485 9.79055 11.0594 10.0734 11.0594C10.2603 11.0594 10.4158 11.1046 10.5406 11.1956C10.6654 11.2866 10.7499 11.4095 10.7953 11.5661L11.4379 11.4464C11.3739 11.1536 11.2306 10.9238 11.0065 10.7577C10.7819 10.5915 10.4715 10.5088 10.0728 10.5088C9.76623 10.5088 9.51087 10.5616 9.30543 10.6673C9.03535 10.8054 8.83055 11.0027 8.69039 11.2612C8.55023 11.5196 8.48047 11.815 8.48047 12.1472C8.48047 12.4528 8.54383 12.736 8.66927 12.9964Z" fill="#1DA1F2"/>
<path d="M12.7063 10.5635H12.0586V13.7532H12.7063V10.5635Z" fill="#1DA1F2"/>
<path d="M13.9739 12.398H15.3134V11.8582H13.9739V11.1026H15.5246V10.5635H13.3262V13.7532H13.9739V12.398Z" fill="#1DA1F2"/>
<path d="M20 5.15851L16.8243 2H4V22.3693H20V5.15851ZM16.6918 2.31827L19.68 5.29028V8.28456H4.32V2.31827H16.6918ZM19.68 8.60284V15.7238H4.32V8.60284H19.68ZM4.32 22.051V16.0414H19.68V22.051H4.32Z" fill="#1DA1F2"/>
</svg>
