<svg width="24" height="24" viewBox="0 0 24 24" fill="none" xmlns="http://www.w3.org/2000/svg">
<path d="M13.0781 3.73678C13.0781 3.33044 12.7475 3 12.3411 3L4.17041 3C3.76406 3 3.43341 3.33066 3.43341 3.73678L3.43341 7.69465C3.43341 8.101 3.76406 8.43144 4.17041 8.43144L12.3411 8.43144C12.7475 8.43144 13.0781 8.10078 13.0781 7.69465L13.0781 3.73678Z" fill="#1DA1F2"/>
<path d="M3.43534 10.52L3.43534 14.4779C3.43534 14.8842 3.766 15.2146 4.17235 15.2146L17.0855 15.2146C17.4916 15.2146 17.8223 14.884 17.8223 14.4779V10.52C17.8223 10.1136 17.4916 9.7832 17.0855 9.7832L4.17235 9.7832C3.766 9.7832 3.43534 10.1136 3.43534 10.52Z" fill="#1DA1F2"/>
<path d="M3.43339 17.3051V21.263C3.43339 21.6694 3.76405 21.9998 4.17039 21.9998L21.263 21.9998C21.6693 21.9998 22 21.6691 22 21.263V17.3051C22 16.8988 21.6693 16.5684 21.263 16.5684L4.17061 16.5684C3.76405 16.5681 3.43339 16.8988 3.43339 17.3051Z" fill="#1DA1F2"/>
</svg>
