<svg xmlns="http://www.w3.org/2000/svg" viewBox="0 0 32 40" x="0px" y="0px"><title>hastag</title><g data-name="hastag"><path d="M25,19.52H19.53l2-7H25a.5.5,0,0,0,.5-.5.5.5,0,0,0-.5-.5H21.77L23,7.13a.49.49,0,0,0-.35-.61.5.5,0,0,0-.61.35l-1.28,4.61h-7L15,7.13a.49.49,0,0,0-.35-.61.5.5,0,0,0-.61.35l-1.28,4.61H7a.5.5,0,0,0-.5.5.5.5,0,0,0,.5.5h5.46l-2,7H7a.5.5,0,0,0-.5.5.5.5,0,0,0,.5.5h3.22L9,24.87a.49.49,0,0,0,.35.61l.13,0a.5.5,0,0,0,.48-.37l1.28-4.61h7L17,24.87a.5.5,0,0,0,.35.61l.13,0a.5.5,0,0,0,.48-.37l1.29-4.61H25a.5.5,0,0,0,.5-.5A.5.5,0,0,0,25,19.52Zm-13.46,0,2-7h7l-2,7Z"/></g><text x="0" y="47" fill="#000000" font-size="5px" font-weight="bold" font-family="'Helvetica Neue', Helvetica, Arial-Unicode, Arial, Sans-serif">Created by Muhammad Rendi</text><text x="0" y="52" fill="#000000" font-size="5px" font-weight="bold" font-family="'Helvetica Neue', Helvetica, Arial-Unicode, Arial, Sans-serif">from the Noun Project</text></svg>