<svg xmlns:dc="http://purl.org/dc/elements/1.1/" xmlns:cc="http://creativecommons.org/ns#" xmlns:rdf="http://www.w3.org/1999/02/22-rdf-syntax-ns#" xmlns:svg="http://www.w3.org/2000/svg" xmlns="http://www.w3.org/2000/svg" xmlns:sodipodi="http://sodipodi.sourceforge.net/DTD/sodipodi-0.dtd" xmlns:inkscape="http://www.inkscape.org/namespaces/inkscape" style="" xml:space="preserve" version="1.1" viewBox="0 0 64 80" x="0px" y="0px" fill-rule="evenodd" clip-rule="evenodd" stroke-linejoin="round" stroke-miterlimit="2"><path style="" d="m 58.99968,33.99968 c 0.809,0 1.538,-0.487 1.848,-1.235 0.309,-0.747 0.138,-1.607 -0.434,-2.179 l -27,-27 c -0.781,-0.781 -2.047,-0.781 -2.828,0 l -27,27 c -0.572,0.572 -0.743,1.432 -0.434,2.179 0.31,0.748 1.039,1.235 1.848,1.235 h 6 c 0.53,0 1.039,0.211 1.414,0.586 0.375,0.375 0.586,0.884 0.586,1.414 0,7.517 0,23 0,23 0,1.105 0.895,2 2,2 h 34 c 1.105,0 2,-0.895 2,-2 v -23 c 0,-0.53 0.211,-1.039 0.586,-1.414 0.375,-0.375 0.884,-0.586 1.414,-0.586 2.784,0 6,0 6,0 z m -21,23 v -15 c 0,-0.53 -0.211,-1.039 -0.586,-1.414 -0.375,-0.375 -0.884,-0.586 -1.414,-0.586 -1.287,0 -6.713,0 -8,0 -0.53,0 -1.039,0.211 -1.414,0.586 -0.375,0.375 -0.586,0.884 -0.586,1.414 v 15 z" fill="#000000"/><text x="0" y="79" fill="#000000" font-size="5px" font-weight="bold" font-family="'Helvetica Neue', Helvetica, Arial-Unicode, Arial, Sans-serif">Created by Ranah Pixel Studio</text><text x="0" y="84" fill="#000000" font-size="5px" font-weight="bold" font-family="'Helvetica Neue', Helvetica, Arial-Unicode, Arial, Sans-serif">from the Noun Project</text></svg>