<svg xmlns="http://www.w3.org/2000/svg" viewBox="0 0 450 562.5" x="0px" y="0px"><title>Fichier 2locate</title><g data-name="Calque 2"><g data-name="Calque 2"><circle cx="225" cy="133.5" r="31.25"/><path d="M251,219.12v103a26,26,0,0,1-52,0v-103a26,26,0,0,1,52,0Z"/><path d="M225,0C100.74,0,0,100.74,0,225S100.74,450,225,450,450,349.26,450,225,349.26,0,225,0ZM355.81,355.81A185,185,0,1,1,94.19,94.19,185,185,0,1,1,355.81,355.81Z"/><path d="M225,0C100.74,0,0,100.74,0,225S100.74,450,225,450,450,349.26,450,225,349.26,0,225,0ZM355.81,355.81A185,185,0,1,1,94.19,94.19,185,185,0,1,1,355.81,355.81Z"/></g></g><text x="0" y="465" fill="#000000" font-size="5px" font-weight="bold" font-family="'Helvetica Neue', Helvetica, Arial-Unicode, Arial, Sans-serif">Created by Poups</text><text x="0" y="470" fill="#000000" font-size="5px" font-weight="bold" font-family="'Helvetica Neue', Helvetica, Arial-Unicode, Arial, Sans-serif">from the Noun Project</text></svg>