<svg width="24" height="24" viewBox="0 0 24 24" fill="none" xmlns="http://www.w3.org/2000/svg">
<path d="M6.80701 2C5.31218 2 3.82294 2.58422 2.69335 3.76639C0.434135 6.13064 0.436969 9.92418 2.69335 12.2901L11.4423 21.4776C11.5132 21.5526 11.5987 21.6123 11.6935 21.6532C11.7882 21.694 11.8903 21.715 11.9935 21.715C12.0967 21.715 12.1989 21.694 12.2936 21.6532C12.3884 21.6123 12.4739 21.5526 12.5448 21.4776C15.4663 18.4202 18.3841 15.3595 21.3056 12.3019C23.5648 9.93768 23.5648 6.14259 21.3056 3.77824C19.0464 1.41389 15.3256 1.41383 13.0664 3.77824L11.9995 4.89261L10.9325 3.76639C9.80292 2.58422 8.30184 2 6.80701 2V2ZM6.80701 3.48187C7.8938 3.48187 8.98143 3.93341 9.83002 4.82148L11.4541 6.51671C11.5251 6.59168 11.6105 6.65141 11.7053 6.69222C11.8001 6.73303 11.9022 6.75406 12.0054 6.75406C12.1086 6.75406 12.2107 6.73303 12.3055 6.69222C12.4003 6.65141 12.4857 6.59168 12.5567 6.51671L14.1689 4.83333C15.8661 3.05714 18.5178 3.05718 20.2149 4.83333C21.9121 6.60947 21.9121 9.48268 20.2149 11.2587C17.4788 14.1222 14.7356 16.9783 11.9995 19.8417L3.784 11.2469C2.08785 9.46834 2.08688 6.59752 3.784 4.82148C4.63257 3.93341 5.72022 3.48187 6.80701 3.48187V3.48187Z" fill="#1DA1F2"/>
</svg>
