<svg xmlns="http://www.w3.org/2000/svg" xmlns:xlink="http://www.w3.org/1999/xlink" version="1.1" x="0px" y="0px" viewBox="0 0 500 625" style="enable-background:new 0 0 500 500;" xml:space="preserve"><g><g><g><path d="M450,400.6c-13.2,0-26.5,0-39.7,0c-31.8,0-63.6,0-95.4,0c-38.6,0-77.3,0-115.9,0c-33.3,0-66.5,0-99.8,0     c-11,0-21.9,0-32.9,0c-5,0-10.7-0.8-15.6,0c-0.2,0-0.5,0-0.7,0c1.7,1.7,3.3,3.3,5,5c0-35.1,0-70.3,0-105.4     c0-55.8,0-111.5,0-167.3c0-12.8,0-25.6,0-38.4c-1.7,1.7-3.3,3.3-5,5c13.2,0,26.5,0,39.7,0c31.8,0,63.6,0,95.4,0     c38.6,0,77.3,0,115.9,0c33.3,0,66.5,0,99.8,0c11,0,21.9,0,32.9,0c5,0,10.7,0.8,15.6,0c0.2,0,0.5,0,0.7,0c-1.7-1.7-3.3-3.3-5-5     c0,35.1,0,70.3,0,105.4c0,55.8,0,111.5,0,167.3c0,12.8,0,25.6,0,38.4c0,6.4,10,6.4,10,0c0-35.1,0-70.3,0-105.4     c0-55.8,0-111.5,0-167.3c0-12.8,0-25.6,0-38.4c0-2.7-2.3-5-5-5c-13.2,0-26.5,0-39.7,0c-31.8,0-63.6,0-95.4,0     c-38.6,0-77.3,0-115.9,0c-33.3,0-66.5,0-99.8,0c-16.1,0-32.4-0.7-48.5,0c-0.2,0-0.5,0-0.7,0c-2.7,0-5,2.3-5,5     c0,35.1,0,70.3,0,105.4c0,55.8,0,111.5,0,167.3c0,12.8,0,25.6,0,38.4c0,2.7,2.3,5,5,5c13.2,0,26.5,0,39.7,0c31.8,0,63.6,0,95.4,0     c38.6,0,77.3,0,115.9,0c33.3,0,66.5,0,99.8,0c16.1,0,32.4,0.7,48.5,0c0.2,0,0.5,0,0.7,0C456.4,410.6,456.4,400.6,450,400.6z"/></g></g><g><g><path d="M46.5,98c22.9,17.9,45.8,35.8,68.7,53.7c36.5,28.5,73,57,109.5,85.5c8.4,6.5,16.7,13.1,25.1,19.6     c2.3,1.8,4.7,1.9,7.1,0c22.2-17.9,44.4-35.9,66.6-53.8c35.2-28.5,70.5-56.9,105.7-85.4c8.1-6.5,16.2-13.1,24.3-19.6     c5-4-2.1-11.1-7.1-7.1c-22.2,17.9-44.4,35.9-66.6,53.8c-35.2,28.5-70.5,56.9-105.7,85.4c-8.1,6.5-16.2,13.1-24.3,19.6     c2.4,0,4.7,0,7.1,0c-22.9-17.9-45.8-35.8-68.7-53.7c-36.5-28.5-73-57-109.5-85.5c-8.4-6.5-16.7-13.1-25.1-19.6     C48.5,87,41.4,94,46.5,98L46.5,98z"/></g></g></g><text x="0" y="515" fill="#000000" font-size="5px" font-weight="bold" font-family="'Helvetica Neue', Helvetica, Arial-Unicode, Arial, Sans-serif">Created by Neha Tyagi</text><text x="0" y="520" fill="#000000" font-size="5px" font-weight="bold" font-family="'Helvetica Neue', Helvetica, Arial-Unicode, Arial, Sans-serif">from the Noun Project</text></svg>