<svg width="24" height="24" viewBox="0 0 24 24" fill="none" xmlns="http://www.w3.org/2000/svg">
<path d="M12.5251 3.6499L11.0501 11.5749L3.9751 13.0249L11.0501 14.4749L12.5251 22.3999L14.0001 14.4749L21.0751 13.0249L14.0001 11.5749L12.5251 3.6499ZM13.7751 14.2749L12.5251 21.0249L11.2751 14.2749L5.25009 13.0249L11.2751 11.7749L12.5251 5.0249L13.7751 11.7749L19.8001 13.0249L13.7751 14.2749Z" fill="#1DA1F2"/>
<path d="M5.92499 10.6L6.59999 6.94999L9.84998 6.27499L6.59999 5.59999L5.92499 2L5.24999 5.62499L2 6.29999L5.24999 6.97499L5.92499 10.6ZM5.47499 5.84999L5.92499 3.375L6.37499 5.84999L8.57498 6.29999L6.37499 6.74999L5.92499 9.22498L5.47499 6.74999L3.25 6.29999L5.47499 5.84999Z" fill="#1DA1F2"/>
<path d="M19.0001 2.99951L18.4751 5.7995L15.9751 6.3245L18.4751 6.8245L19.0001 9.59949L19.5001 6.8245L22.0001 6.3245L19.5001 5.7995L19.0001 2.99951ZM19.3001 6.5995L19.0001 8.2245L18.7001 6.5995L17.2501 6.2995L18.7001 5.9995L19.0001 4.37451L19.3001 5.9995L20.7501 6.2995L19.3001 6.5995Z" fill="#1DA1F2"/>
</svg>
