<svg xmlns="http://www.w3.org/2000/svg" xmlns:xlink="http://www.w3.org/1999/xlink" version="1.1" x="0px" y="0px" viewBox="0 0 100 125" enable-background="new 0 0 100 100" xml:space="preserve"><circle fill="none" stroke="#000000" stroke-width="3" stroke-linecap="round" stroke-linejoin="round" stroke-miterlimit="10" cx="50.045" cy="49.959" r="35.045"/><path d="M50.053,44.213c-2.615,0-4.734,2.12-4.734,4.734c0,2.615,2.12,4.735,4.734,4.735c2.615,0,4.735-2.12,4.735-4.735  C54.788,46.333,52.668,44.213,50.053,44.213z M33.053,44.213c-2.615,0-4.734,2.12-4.734,4.734c0,2.615,2.12,4.735,4.734,4.735  c2.615,0,4.735-2.12,4.735-4.735C37.788,46.333,35.668,44.213,33.053,44.213z M67.053,44.213c-2.615,0-4.734,2.12-4.734,4.734  c0,2.615,2.12,4.735,4.734,4.735c2.615,0,4.735-2.12,4.735-4.735C71.788,46.333,69.668,44.213,67.053,44.213z"/><text x="0" y="115" fill="#000000" font-size="5px" font-weight="bold" font-family="'Helvetica Neue', Helvetica, Arial-Unicode, Arial, Sans-serif">Created by IconTrack</text><text x="0" y="120" fill="#000000" font-size="5px" font-weight="bold" font-family="'Helvetica Neue', Helvetica, Arial-Unicode, Arial, Sans-serif">from the Noun Project</text></svg>