<svg xmlns="http://www.w3.org/2000/svg" xmlns:xlink="http://www.w3.org/1999/xlink" version="1.1" x="0px" y="0px" viewBox="0 0 100 125" style="enable-background:new 0 0 100 100;" xml:space="preserve"><path d="M73.9,61h-1.1V43c0-10.2-7.1-19.1-16.9-21.4v-2.5c0-2.8-2.3-5.1-5.1-5.1s-5.1,2.3-5.1,5.1v2.5c-9.9,2.3-17,11.2-17,21.4v18  h-1.1c-3.2,0-5.8,2.6-5.8,5.8s2.6,5.8,5.8,5.8h15.2c0.5,3.9,3.9,7,7.9,7s7.4-3.1,7.9-7h15.2c3.2,0,5.8-2.6,5.8-5.8S77.1,61,73.9,61z   M50.8,77.5c-3,0-5.4-2.2-5.9-5h11.8C56.2,75.3,53.8,77.5,50.8,77.5z M73.9,70.5H27.6c-2.1,0-3.8-1.7-3.8-3.8s1.7-3.8,3.8-3.8h2.1  c0.6,0,1-0.4,1-1V43c0-9.5,6.8-17.8,16.1-19.7c0.5-0.1,0.8-0.5,0.8-1V19c0-1.7,1.4-3.1,3.1-3.1s3.1,1.4,3.1,3.1v3.3  c0,0.5,0.3,0.9,0.8,1C64,25.2,70.8,33.5,70.8,43v19c0,0.6,0.4,1,1,1h2.1c2.1,0,3.8,1.7,3.8,3.8S76,70.5,73.9,70.5z"/><text x="0" y="115" fill="#000000" font-size="5px" font-weight="bold" font-family="'Helvetica Neue', Helvetica, Arial-Unicode, Arial, Sans-serif">Created by April Yang</text><text x="0" y="120" fill="#000000" font-size="5px" font-weight="bold" font-family="'Helvetica Neue', Helvetica, Arial-Unicode, Arial, Sans-serif">from the Noun Project</text></svg>