<svg xmlns="http://www.w3.org/2000/svg" data-name="Layer 1" viewBox="0 0 48 60" x="0px" y="0px"><defs><style>.cls-1{fill:none;}</style></defs><title>Picture</title><path class="cls-1" d="M36,13.5H12a.5.5,0,0,0-.5.5V30.53L14.06,28a2.75,2.75,0,0,1,3.88,0l3,3,7.08-7.08a2.75,2.75,0,0,1,3.88,0l4.56,4.56V14A.5.5,0,0,0,36,13.5Z"/><path class="cls-1" d="M29.12,25,22,32.06l2.43,2.44H36a.5.5,0,0,0,.5-.5V30.6L30.88,25A1.24,1.24,0,0,0,29.12,25Z"/><path class="cls-1" d="M15.12,29,11.5,32.65V34a.5.5,0,0,0,.5.5H22.35L16.88,29A1.24,1.24,0,0,0,15.12,29Z"/><path class="cls-1" d="M36,13.5H12a.5.5,0,0,0-.5.5V30.53L14.06,28a2.75,2.75,0,0,1,3.88,0l3,3,7.08-7.08a2.75,2.75,0,0,1,3.88,0l4.56,4.56V14A.5.5,0,0,0,36,13.5Z"/><path d="M36,12H12a2,2,0,0,0-2,2V34a2,2,0,0,0,2,2H36a2,2,0,0,0,2-2V14A2,2,0,0,0,36,12ZM12,34.5a.5.5,0,0,1-.5-.5V32.65L15.12,29a1.24,1.24,0,0,1,1.76,0l5.47,5.47ZM36.5,34a.5.5,0,0,1-.5.5H24.47L22,32.06,29.12,25a1.24,1.24,0,0,1,1.76,0L36.5,30.6Zm0-5.52-4.56-4.56a2.75,2.75,0,0,0-3.88,0L21,31l-3-3a2.75,2.75,0,0,0-3.88,0L11.5,30.53V14a.5.5,0,0,1,.5-.5H36a.5.5,0,0,1,.5.5Z"/><path d="M19,18.05a3,3,0,1,0,3,3A3,3,0,0,0,19,18.05Zm0,4.5a1.5,1.5,0,1,1,1.5-1.5A1.5,1.5,0,0,1,19,22.55Z"/><text x="0" y="63" fill="#000000" font-size="5px" font-weight="bold" font-family="'Helvetica Neue', Helvetica, Arial-Unicode, Arial, Sans-serif">Created by Fengquan Li</text><text x="0" y="68" fill="#000000" font-size="5px" font-weight="bold" font-family="'Helvetica Neue', Helvetica, Arial-Unicode, Arial, Sans-serif">from the Noun Project</text></svg>