<svg width="23" height="23" viewBox="0 0 23 23" fill="none" xmlns="http://www.w3.org/2000/svg">
<path d="M19.3333 3H3.33333C2.97971 3 2.64057 3.14048 2.39052 3.39052C2.14048 3.64057 2 3.97971 2 4.33333V17.6667C2 18.0203 2.14048 18.3594 2.39052 18.6095C2.64057 18.8595 2.97971 19 3.33333 19H19.3333C19.687 19 20.0261 18.8595 20.2761 18.6095C20.5262 18.3594 20.6667 18.0203 20.6667 17.6667V4.33333C20.6667 3.97971 20.5262 3.64057 20.2761 3.39052C20.0261 3.14048 19.687 3 19.3333 3ZM3.33333 18C3.24493 18 3.16014 17.9649 3.09763 17.9024C3.03512 17.8399 3 17.7551 3 17.6667V16.7667L5.41333 14.3333C5.49017 14.2559 5.58157 14.1945 5.68226 14.1526C5.78295 14.1107 5.89093 14.0891 6 14.0891C6.10907 14.0891 6.21705 14.1107 6.31774 14.1526C6.41843 14.1945 6.50983 14.2559 6.58667 14.3333L10.2333 17.98L3.33333 18ZM19.6667 17.6667C19.6667 17.7551 19.6315 17.8399 19.569 17.9024C19.5065 17.9649 19.4217 18 19.3333 18H11.6467L10 16.3733L14.7467 11.6667C14.8235 11.5893 14.9149 11.5278 15.0156 11.4859C15.1163 11.444 15.2243 11.4224 15.3333 11.4224C15.4424 11.4224 15.5504 11.444 15.6511 11.4859C15.7518 11.5278 15.8432 11.5893 15.92 11.6667L19.6667 15.4V17.6667ZM19.6667 13.9867L16.6267 10.9467C16.2831 10.6047 15.8181 10.4127 15.3333 10.4127C14.8486 10.4127 14.3836 10.6047 14.04 10.9467L9.33333 15.6667L7.33333 13.6667C6.98977 13.3247 6.52475 13.1327 6.04 13.1327C5.55525 13.1327 5.09023 13.3247 4.74667 13.6667L3 15.3533V4.33333C3 4.24493 3.03512 4.16014 3.09763 4.09763C3.16014 4.03512 3.24493 4 3.33333 4H19.3333C19.4217 4 19.5065 4.03512 19.569 4.09763C19.6315 4.16014 19.6667 4.24493 19.6667 4.33333V13.9867Z" fill="#1DA1F2"/>
<path d="M8 7.0332C7.60444 7.0332 7.21776 7.1505 6.88886 7.37026C6.55996 7.59003 6.30362 7.90238 6.15224 8.26784C6.00087 8.63329 5.96126 9.03542 6.03843 9.42338C6.1156 9.81135 6.30608 10.1677 6.58579 10.4474C6.86549 10.7271 7.22186 10.9176 7.60982 10.9948C7.99778 11.0719 8.39992 11.0323 8.76537 10.881C9.13082 10.7296 9.44318 10.4732 9.66294 10.1443C9.8827 9.81545 10 9.42877 10 9.0332C10 8.50277 9.78929 7.99406 9.41422 7.61899C9.03914 7.24392 8.53043 7.0332 8 7.0332V7.0332ZM8 10.0332C7.80222 10.0332 7.60888 9.97456 7.44443 9.86467C7.27998 9.75479 7.15181 9.59861 7.07612 9.41589C7.00043 9.23316 6.98063 9.03209 7.01922 8.83811C7.0578 8.64413 7.15304 8.46595 7.29289 8.3261C7.43275 8.18624 7.61093 8.091 7.80491 8.05242C7.99889 8.01383 8.19996 8.03364 8.38268 8.10932C8.56541 8.18501 8.72159 8.31318 8.83147 8.47763C8.94135 8.64208 9 8.83542 9 9.0332C9 9.29842 8.89464 9.55277 8.70711 9.74031C8.51957 9.92785 8.26522 10.0332 8 10.0332Z" fill="#1DA1F2"/>
</svg>
