<svg xmlns="http://www.w3.org/2000/svg" xmlns:xlink="http://www.w3.org/1999/xlink" version="1.1" x="0px" y="0px" viewBox="0 0 100 125" style="enable-background:new 0 0 100 100;" xml:space="preserve"><g><path d="M50,47.4c10.5,0,19-8.5,19-19s-8.5-19-19-19s-19,8.5-19,19S39.5,47.4,50,47.4z M50,15.4c7.2,0,13,5.8,13,13s-5.8,13-13,13   c-7.2,0-13-5.8-13-13S42.8,15.4,50,15.4z"/><path d="M18.6,90.6h62.8c1.7,0,3-1.3,3-3v-11c0-14.9-12.1-27-27-27H42.6c-14.9,0-27,12.1-27,27v11C15.6,89.3,16.9,90.6,18.6,90.6z    M21.6,76.7c0-11.6,9.4-21,21-21h14.8c11.6,0,21,9.4,21,21v8H21.6V76.7z"/></g><text x="0" y="115" fill="#000000" font-size="5px" font-weight="bold" font-family="'Helvetica Neue', Helvetica, Arial-Unicode, Arial, Sans-serif">Created by Alax</text><text x="0" y="120" fill="#000000" font-size="5px" font-weight="bold" font-family="'Helvetica Neue', Helvetica, Arial-Unicode, Arial, Sans-serif">from the Noun Project</text></svg>