<svg width="24" height="24" viewBox="0 0 24 24" fill="none" xmlns="http://www.w3.org/2000/svg">
<path d="M17.625 9.18747V15.9375C17.625 16.385 17.4472 16.8142 17.1307 17.1307C16.8143 17.4472 16.3851 17.625 15.9375 17.625H8.0625C7.61495 17.625 7.18572 17.4472 6.86926 17.1307C6.55279 16.8142 6.375 16.385 6.375 15.9375V9.18747C6.375 8.73991 6.55279 8.31069 6.86926 7.99422C7.18572 7.67776 7.61495 7.49997 8.0625 7.49997C8.21168 7.49997 8.35476 7.55923 8.46025 7.66472C8.56574 7.77021 8.625 7.91328 8.625 8.06247C8.625 8.21165 8.56574 8.35472 8.46025 8.46021C8.35476 8.5657 8.21168 8.62497 8.0625 8.62497C7.91332 8.62497 7.77024 8.68423 7.66475 8.78972C7.55926 8.89521 7.5 9.03828 7.5 9.18747V15.9375C7.5 16.0866 7.55926 16.2297 7.66475 16.3352C7.77024 16.4407 7.91332 16.5 8.0625 16.5H15.9375C16.0867 16.5 16.2298 16.4407 16.3352 16.3352C16.4407 16.2297 16.5 16.0866 16.5 15.9375V9.18747C16.5 9.03828 16.4407 8.89521 16.3352 8.78972C16.2298 8.68423 16.0867 8.62497 15.9375 8.62497C15.7883 8.62497 15.6452 8.5657 15.5398 8.46021C15.4343 8.35472 15.375 8.21165 15.375 8.06247C15.375 7.91328 15.4343 7.77021 15.5398 7.66472C15.6452 7.55923 15.7883 7.49997 15.9375 7.49997C16.3851 7.49997 16.8143 7.67776 17.1307 7.99422C17.4472 8.31069 17.625 8.73991 17.625 9.18747ZM10.1494 9.58684L11.4375 8.29309V13.6875C11.4375 13.8366 11.4968 13.9797 11.6023 14.0852C11.7077 14.1907 11.8508 14.25 12 14.25C12.1492 14.25 12.2923 14.1907 12.3977 14.0852C12.5032 13.9797 12.5625 13.8366 12.5625 13.6875V8.29309L13.8506 9.58684C13.9029 9.63956 13.9651 9.68141 14.0337 9.70997C14.1022 9.73852 14.1757 9.75323 14.25 9.75323C14.3243 9.75323 14.3978 9.73852 14.4663 9.70997C14.5349 9.68141 14.5971 9.63956 14.6494 9.58684C14.7021 9.53455 14.7439 9.47234 14.7725 9.40379C14.8011 9.33524 14.8158 9.26172 14.8158 9.18747C14.8158 9.11321 14.8011 9.03969 14.7725 8.97114C14.7439 8.9026 14.7021 8.84038 14.6494 8.78809L12.3994 6.53809C12.3471 6.48537 12.2849 6.44352 12.2163 6.41496C12.1478 6.38641 12.0743 6.3717 12 6.3717C11.9257 6.3717 11.8522 6.38641 11.7837 6.41496C11.7151 6.44352 11.6529 6.48537 11.6006 6.53809L9.35062 8.78809C9.2447 8.89401 9.1852 9.03767 9.1852 9.18747C9.1852 9.33726 9.2447 9.48092 9.35062 9.58684C9.45655 9.69276 9.60021 9.75227 9.75 9.75227C9.89979 9.75227 10.0435 9.69276 10.1494 9.58684Z" fill="#1DA1F2"/>
</svg>
